HIERARCHY
ROOT Hips
{
	OFFSET -0.247350815114 -23.1816588432 2.54105653081
	CHANNELS 6 Xposition Yposition Zposition Zrotation Yrotation Xrotation
	JOINT LeftHip
	{
		OFFSET 6.72924306484 -9.26252652874 -0.800431638325
		CHANNELS 3 Zrotation Yrotation Xrotation
		JOINT LeftKnee
		{
			OFFSET 3.76835976638 -38.6671778079 -0.180862463868
			CHANNELS 3 Zrotation Yrotation Xrotation
			JOINT LeftFoot
			{
				OFFSET -1.4919056 -41.0963482492 -4.34135973863
				CHANNELS 3 Zrotation Yrotation Xrotation
				End LeftToe
				{
                                  OFFSET 2.75809752927 -5.69823696547 12.2762000959
				}
			}
		}
	}
	JOINT RightHip
	{
		OFFSET -6.55658365805 -9.14868004727 -0.593462465785
		CHANNELS 3 Zrotation Yrotation Xrotation
		JOINT RightKnee
		{
			OFFSET -4.10426135846 -39.4725841513 -0.725371334733
			CHANNELS 3 Zrotation Yrotation Xrotation
			JOINT RightFoot
			{
				OFFSET 1.71682140914 -41.1353519395 -4.18487624958
				CHANNELS 3 Zrotation Yrotation Xrotation
				End RightToe
				{
                                        OFFSET -2.63295705775 -4.960953915 12.7068299673
				}
			}
		}
	}
	JOINT Waist
	{
		OFFSET -0.267583995492 11.2045509956 -2.67030293779
		CHANNELS 3 Zrotation Yrotation Xrotation
		JOINT Spine
		{
			OFFSET 0.66992622613 14.2799381532 0.385901868295
			CHANNELS 3 Zrotation Yrotation Xrotation
                        JOINT Chest
                        {
                            OFFSET 0.118785686999 5.5651715899 2.33387784635
                            CHANNELS 3 Zrotation Yrotation Xrotation
                            JOINT Neck
                            {
                                OFFSET -0.361183909587 21.8578637537 -3.7839915351
                                CHANNELS 3 Zrotation Yrotation Xrotation
                                End Head
                                {
                                        OFFSET 0.143111519415 27.3500551737 2.12439404724
                                }
                            }
                            JOINT LeftInnerShoulder
                            {
                                OFFSET 7.99804415509 12.3890290918 -3.19585420822
                                CHANNELS 3 Zrotation Yrotation Xrotation
                                JOINT LeftShoulder
                                {
                                        OFFSET 9.34809818395 3.01737439304 -0.897406306767
                                        CHANNELS 3 Zrotation Yrotation Xrotation
                                        JOINT LeftElbow
                                        {
                                                OFFSET 26.7199268813 -1.4343100216 -2.69801090695
                                                CHANNELS 3 Zrotation Yrotation Xrotation
                                                End LeftWrist
                                                {
                                                        OFFSET 25.7162261719 0.90079877685 -0.202905282608
                                                }
                                        }
                                }
                            }
                            JOINT RightInnerShoulder
                            {
                                OFFSET -8.35358242176 12.0414686305 -3.62502287866
                                CHANNELS 3 Zrotation Yrotation Xrotation
                                JOINT RightShoulder
                                {
                                        OFFSET -9.90014670624 3.29270013879 -0.823772264488
                                        CHANNELS 3 Zrotation Yrotation Xrotation
                                        JOINT RightElbow
                                        {
                                                OFFSET -26.0244766702 -1.44791358656 -2.13990693366
                                                CHANNELS 3 Zrotation Yrotation Xrotation
                                                End RightWrist
                                                {
                                                        OFFSET -26.2744512096 0.702258889087 -0.717078041129
                                                }
                                        }
                                }
                            }
                        }
                }
            }
}
MOTION
Frames: 24
Frame Time: 0.0333333333333
0.00000 0.00000 0.00000 -0.86036 -8.81702 4.86950 13.80189 4.71019 -14.53282 -8.07568 4.09214 61.57849 1.70292 4.54199 -13.35672 -12.26894 -5.26544 -25.61665 8.02511 -2.01615 68.54287 16.98806 1.51018 -8.61198 -0.53468 -0.72597 6.09265 2.09693 -2.99439 -1.97669 0.86484 -2.96322 1.79840 -2.39876 12.25315 -11.76089 -10.72021 -19.21593 1.03453 -80.12849 -29.04186 34.28445 -57.62655 -72.69334 94.09415 9.15169 7.57192 -1.11652 79.39866 -0.02574 27.08259 156.14233 70.73447 -168.84268
-2.32463 10.15380 -0.02451 -1.24472 -9.64407 3.47575 13.62430 4.68710 -14.08512 -6.06406 3.53800 57.28551 -0.33344 5.79705 -11.28593 -12.60691 -4.94146 -25.17514 5.79801 -1.80506 66.89520 14.12810 0.69589 -9.13724 0.14714 -0.83441 7.71113 1.64899 -1.40446 -1.58524 1.17433 -1.94585 1.71697 -2.09134 10.09166 -11.04271 -9.95524 -14.67351 0.77937 -81.30163 -27.25219 32.87805 -67.58896 -77.22339 106.87041 8.16366 7.90424 -1.88780 80.86928 4.52177 27.21500 168.77532 78.88708 -156.93573
-6.46790 23.88905 -0.03027 0.28340 -7.40517 4.13465 15.33107 5.53271 -16.70006 -6.87093 5.25217 54.24719 -0.57579 4.68228 -8.30487 -15.76378 -7.71928 -25.16751 4.72337 -3.30844 65.78734 15.85953 -0.94001 -5.78318 0.59994 -0.12749 6.73761 0.85853 -0.72293 -2.28923 0.95257 -1.27274 0.81726 -2.27703 7.31555 -9.95087 -11.27829 -14.81917 1.23567 -79.05992 -26.46780 32.34263 -83.27228 -79.06612 123.15009 8.77318 12.59056 -1.96873 79.50235 10.49620 29.85025 162.44851 78.70127 -163.92346
-13.57463 37.82405 -0.02022 1.46148 -4.86631 1.33143 16.82257 5.43897 -17.74880 -8.30168 6.57153 59.74084 -3.02508 3.31760 -6.66231 -16.15117 -6.49629 -17.16100 5.38877 0.91152 59.48246 13.17466 -1.28856 -1.24267 -0.32677 -0.22306 5.18909 1.32142 -2.11010 1.87817 -0.45423 -1.20451 0.31403 -1.69960 5.02519 -7.19421 -4.79806 -18.30407 0.32971 -78.14046 -29.07546 32.47804 -80.43693 -82.34573 111.21466 2.60578 21.72932 -4.46978 78.80622 28.81700 35.33582 -33.05369 82.12209 -7.67326
-22.91037 46.42866 -0.04475 2.72729 1.75264 0.00029 21.26331 6.96596 -25.68351 -5.44139 12.74766 71.06498 -4.92630 3.24797 -4.24513 -16.34292 -8.29060 -8.10050 4.69728 2.26065 50.70777 11.17078 -1.80172 2.85830 -1.89415 2.35444 5.73420 1.62673 -3.71027 3.72401 -0.33309 -1.13031 0.04079 -1.33639 0.59208 -4.83562 -5.45411 -20.32819 -0.43574 -77.79846 -33.81528 32.68857 -55.80466 -82.97139 79.75917 2.65974 21.69418 -4.42165 70.49064 31.32821 30.46057 -42.12340 74.13911 -20.48271
-29.51825 45.71792 -0.08337 4.53803 8.73476 -0.33706 22.59904 10.19023 -35.18825 -1.45443 15.99870 82.19641 -5.23985 2.53019 -2.34893 -16.72913 -9.76310 -2.51060 4.46494 4.09754 49.02274 11.14617 -1.74017 1.97074 -2.81829 4.02908 8.79543 1.40115 -4.65625 0.21530 -0.47463 -2.34689 0.94528 -2.15860 -2.89007 -5.65181 -4.72503 -16.95475 0.04858 -80.95023 -36.04107 33.10201 -53.45196 -84.05450 79.69441 2.72858 14.94241 -5.17720 74.40504 23.30882 27.49733 -70.48034 70.91652 -52.62054
-37.48871 41.18879 -0.07973 3.70655 10.30086 -2.64781 25.50513 13.03639 -38.84763 -2.03214 17.47942 90.81283 -9.40285 -0.44903 -0.81988 -16.04138 -9.24009 1.46583 6.46831 5.27151 49.68789 6.45796 1.54906 -5.88556 -2.95389 3.94045 11.29335 2.23510 -5.77672 2.72843 -0.05037 -2.59237 0.32160 -1.40290 -0.66276 -8.50687 -8.49598 -15.31145 1.83912 -77.56298 -32.81787 28.49931 168.06015 -85.19662 -141.30415 7.94828 16.40301 -4.03653 74.39399 26.37917 27.34372 -85.31562 68.35130 -65.65491
-40.86711 31.65203 -0.05346 4.80837 8.06828 0.93634 27.03195 16.27704 -41.47777 1.09500 19.20917 95.32404 -7.53917 0.65290 -1.27358 -15.69314 -8.93662 -2.64440 6.80719 4.20094 48.63480 6.92984 3.56095 -3.40146 -2.71638 3.50847 11.85470 1.25012 -5.21693 -1.57575 0.10978 -2.77393 -0.33534 -1.22455 0.64431 -9.99835 -14.96511 -8.92428 4.65064 -77.60616 -22.11027 26.24678 -172.65177 -77.72944 -153.36365 13.41948 12.80670 -2.05809 81.40520 19.73522 30.05660 -120.31067 75.98903 -95.07559
-49.07333 19.71053 -0.04283 3.85424 6.38796 0.71982 28.01648 16.93289 -37.49189 0.56212 18.46749 89.76719 -7.61344 2.63294 -2.16966 -13.73517 -9.29439 -3.57720 8.08947 1.89407 47.27749 5.59136 4.71346 -7.70862 -2.50268 3.76025 9.98669 1.31288 -6.05299 -0.14617 0.48452 -2.87232 -0.72799 -2.06162 3.54726 -10.17962 -17.63182 -12.37162 4.61206 -74.81642 -21.34655 28.51498 -129.02269 -80.88496 166.67738 16.28415 14.67065 -0.71876 77.96155 18.07667 28.86876 -112.87062 81.84609 -84.42547
-54.84628 6.98459 -0.02648 4.56266 7.13138 3.26951 21.42208 12.29521 -33.54740 -0.50118 19.10160 78.55299 -2.75093 4.86290 -6.45879 -11.75189 -7.55908 -9.14501 6.95187 -0.20696 55.88015 5.62667 1.54509 -11.94370 -1.72925 1.32779 8.46887 -1.11666 -4.20211 -2.50308 -0.23311 -2.98747 0.12547 -0.20424 3.42940 -11.99645 -16.36055 -10.52722 2.95627 -75.42358 -21.93241 29.07972 -110.16377 -80.24396 150.43293 12.24190 12.07593 -3.49945 77.89923 17.16705 30.26563 57.23593 88.61463 87.61226
-60.58255 -0.23870 -0.00354 4.37513 6.00015 1.74410 16.50332 8.29225 -28.42484 -4.61002 13.77283 72.07309 1.27569 4.59853 -12.52280 -9.51171 -7.06368 -8.98933 9.02699 2.17789 59.57216 8.27999 1.59979 -9.96884 -1.73329 1.81506 7.41413 -1.45351 -2.42154 -2.14718 -1.28443 -1.52156 1.87727 1.29653 1.00648 -11.19639 -11.37267 -11.48740 0.52669 -77.62563 -25.63026 30.91870 -58.95810 -78.82862 89.35861 4.29532 15.46626 -5.19227 76.51663 23.96837 34.28401 46.80122 83.12066 70.07063
-61.31467 5.13847 -0.02637 5.07814 6.57343 2.23750 17.11895 7.49231 -30.17868 -3.84594 12.87670 71.82286 -0.53266 4.99579 -8.51879 -9.73226 -7.55567 -8.96654 7.17448 0.77208 57.23531 6.70616 0.28476 -11.68243 -0.87669 2.24327 8.45145 -2.83725 -1.76865 -2.89564 -0.78713 -0.75014 1.35776 1.00590 -2.25287 -11.26013 -10.82003 -11.47199 0.48488 -77.31022 -24.22638 29.10955 -46.08699 -81.46372 81.70565 2.89586 17.49723 -5.45863 77.66197 23.82354 33.57197 39.00986 78.64500 66.33034
-63.72046 19.50170 -0.04421 5.11046 9.45776 1.58010 19.46183 8.33241 -31.86550 -1.48998 14.70505 71.53830 -4.77092 5.48213 -2.43110 -9.20418 -6.39360 -7.14180 6.39765 1.84025 54.79591 6.96653 -0.41875 -9.45598 -1.41377 2.46786 9.14380 -2.45335 -2.89466 -1.19172 -1.22372 -1.15509 0.90964 -0.10569 -1.99122 -9.95761 -10.96324 -13.33759 1.23529 -75.74968 -25.09354 28.27093 -61.51917 -83.81204 97.59895 4.06902 17.46402 -4.27850 74.93232 21.68945 30.55346 46.76570 84.32339 76.17738
-63.59883 32.71434 -0.05416 5.31444 9.31865 0.23694 23.26897 10.58251 -33.73647 0.26270 14.49649 76.52670 -7.85695 6.11015 -1.67930 -10.82488 -8.35243 -0.31595 6.73244 3.35762 44.11930 4.09573 0.06581 -13.42280 -1.50153 3.31060 10.00622 -2.27660 -3.98135 -0.39136 -1.04395 -1.55595 0.40620 -1.67470 -0.92905 -9.23722 -9.63872 -15.99036 0.78056 -72.91770 -27.54255 28.20023 -66.80800 -82.00692 102.75886 4.44668 18.52564 -4.38143 73.16072 23.63341 29.58783 6.59119 83.11915 34.57540
-63.82678 40.00843 -0.07460 5.51699 11.14302 -0.91623 24.61131 11.26800 -38.98800 -1.33762 15.16622 80.49992 -9.41320 2.82530 4.01990 -12.91458 -10.55230 4.29512 6.25510 2.48887 41.55784 5.41068 -2.38179 -5.55442 -3.28704 5.19466 9.62176 -0.11539 -6.14160 2.06693 -1.02977 -1.75437 0.15996 -3.78937 -0.37916 -8.25307 -8.52357 -19.82904 1.09741 -69.36388 -32.35082 29.41683 -77.17435 -80.15000 106.32120 7.84147 20.96912 -2.89202 68.88595 27.20349 28.67409 -40.42623 77.97179 -17.97012
-63.11010 39.90429 -0.06520 4.83766 13.12512 -1.25360 25.32464 12.75534 -47.50837 -1.77912 15.65605 88.94039 -8.60125 0.15740 3.17813 -11.53182 -10.94999 5.95545 7.72214 4.20482 40.93693 7.09967 0.50477 -3.28628 -4.11556 6.32841 10.92071 0.66033 -7.79801 0.56688 -0.48198 -2.16499 1.67361 -4.78250 -3.21154 -8.52662 -8.18162 -14.49868 1.56743 -73.75922 -28.41573 28.78219 -166.59142 -82.46480 -166.95453 7.71317 17.01838 -2.00941 72.26694 24.92901 26.37316 -72.40916 74.67314 -53.47746
-63.89099 36.00736 -0.08926 5.26001 13.20445 -0.65607 26.23072 13.57179 -52.38996 -0.35934 16.12353 92.74954 -8.42167 -0.26355 1.74652 -11.51637 -11.15051 6.03490 7.19324 4.03584 40.85107 5.92054 1.81022 -4.76503 -4.89989 7.72292 12.76694 1.43775 -7.09354 -0.60655 0.34523 -2.72324 1.96304 -3.69100 -1.78786 -9.10213 -8.92533 -8.83732 1.91421 -78.48024 -24.57862 28.26618 178.65693 -79.73123 -149.18263 9.24145 12.12688 -3.05022 81.29858 20.89837 29.01200 -107.54847 69.68554 -84.84412
-64.24291 31.12051 -0.06506 5.40925 11.88431 0.04664 28.14435 16.08150 -51.61353 2.68065 17.83397 94.27879 -11.18772 0.98285 5.63111 -10.41772 -9.96341 4.57562 6.85210 2.79013 37.25131 4.61427 3.52396 -6.58000 -4.32138 7.00302 13.50996 0.77657 -7.74122 0.30347 0.69494 -2.41920 0.49899 -4.80607 1.17685 -9.95611 -11.48860 -11.19724 3.13698 -77.29294 -22.06013 28.34649 -175.78081 -67.29184 -149.77395 11.87158 14.80684 -0.58853 83.11930 18.12806 28.90183 -137.46760 70.89084 -112.26151
-65.30585 19.86389 -0.04423 4.84481 10.70544 0.20533 26.46516 14.09766 -46.84390 1.73562 17.42765 89.84438 -10.85338 2.19404 2.70149 -9.39347 -8.18237 0.03261 7.43908 1.33521 45.28778 3.84089 1.95395 -11.42521 -4.48172 5.36575 13.14818 0.99569 -6.28612 0.15811 -0.04759 -2.88894 0.49212 -1.67378 4.09092 -12.86287 -15.26789 -7.10183 3.40335 -74.46897 -20.35254 26.77170 -170.56538 -69.25391 -153.60873 16.85556 11.23776 -0.59129 81.77751 15.50469 30.40141 -146.85925 72.83032 -118.25899
-63.68207 7.63553 -0.02106 4.61537 7.05156 0.86621 23.79609 13.73552 -37.67727 -1.55772 17.32650 82.04105 -6.32286 2.07831 -3.47738 -8.31071 -5.46102 -6.22769 8.25839 1.90769 54.16993 5.57467 3.70562 -10.08508 -3.92568 1.93002 11.87281 0.59863 -5.39101 0.33350 -0.33319 -3.84777 1.28436 -1.64381 5.84948 -15.78373 -18.37291 -1.91061 3.12519 -73.66214 -17.70838 23.11216 178.76751 -65.37052 -140.39729 18.70847 9.80006 -0.68532 82.20114 15.28401 31.89178 -145.68110 78.46685 -117.19895
-62.69118 1.25625 0.01282 3.34035 5.47847 1.67404 18.23903 10.20485 -27.94737 -4.53707 14.86531 73.25306 -0.88005 3.63974 -8.93571 -6.84675 -4.24670 -10.35466 8.00175 1.52380 59.92518 6.00894 3.45251 -9.37214 -2.91182 0.36087 9.19870 0.63408 -4.13943 1.23099 0.04912 -3.48892 1.95334 -1.16793 5.10385 -13.99411 -16.55249 -5.06636 3.30857 -76.95473 -19.77895 27.04021 -156.73620 -76.45322 -167.40037 13.93958 11.46121 -1.33723 83.61325 14.85673 34.78424 146.84876 86.66147 174.60939
-57.65203 7.33942 0.01134 1.41607 1.36279 2.29513 14.75474 7.42384 -22.72182 -4.09742 12.33064 66.48312 -0.58190 5.15881 -8.66585 -7.33789 -3.56383 -15.05610 7.32925 1.34513 61.16166 9.02615 3.64010 -7.32089 -1.74974 0.32093 8.77742 0.84307 -2.71942 1.40389 0.21734 -2.32025 1.73871 -1.56955 5.92252 -13.34570 -14.46984 -10.28423 3.21371 -78.50786 -23.03591 28.15763 -105.72833 -81.52237 142.43606 12.06390 11.10625 -0.85694 85.41028 9.18553 32.96775 136.24586 82.35516 168.55495
-50.88658 24.57250 -0.00937 0.25028 1.96800 3.52100 15.61977 6.77890 -21.82480 -2.11735 13.81662 63.16974 -0.65894 8.14000 -7.42950 -8.67655 -2.67404 -18.36038 5.83442 -0.34279 56.75014 10.30782 0.09206 -10.31285 -0.33190 -0.51209 9.08642 0.42277 -2.87525 -0.00790 1.48969 -2.95542 1.58510 -1.29426 6.76506 -11.82448 -21.78508 -11.69235 5.01159 -77.61139 -21.71802 28.44965 -70.99692 -84.32254 110.13933 17.69109 7.41000 1.75737 80.38875 -1.24469 27.26105 114.03152 78.94532 151.15093
-42.66213 41.43449 -0.00552 0.31743 0.33731 2.71546 15.56351 8.49362 -17.17118 -4.35427 12.18310 56.04175 -1.65639 6.05561 -7.16485 -11.87700 -4.46829 -19.98954 5.65458 -0.67178 57.37614 12.95713 -0.32238 -7.86534 0.23160 -0.89331 8.84413 0.88975 -2.61571 1.50106 1.12738 -3.33812 1.70747 -2.98231 7.42170 -10.64707 -17.57279 -12.91628 4.43356 -78.51311 -24.05844 27.51777 -41.73797 -82.12216 78.77499 14.97711 6.09713 2.29702 80.10286 -3.17484 26.39582 124.71366 79.38574 161.14006
